<svg xmlns="http://www.w3.org/2000/svg" width="1280" height="640" viewBox="0 0 1280 640" role="img" aria-labelledby="title desc">
<title id="title">Design-Patterns-23 by Sanfor2004</title>
<desc id="desc">23 Patterns, 4 Languages, practical C++20 software design. The original orange Sanfor logo on warm paper.</desc>
<rect width="1280" height="640" fill="#e7c99f"/>
<g stroke="#c99e64" stroke-width="1"><path d="M48 0V640M1232 0V640M0 146H1280M0 584H1280"/></g>
<g transform="translate(80 53) scale(1.5)" fill="none">
<path d="M24.8595 28.4785C23.8944 30.4419 20.1272 35.6268 12.3798 36.2658M29.5518 28.4785C30.8164 30.7414 35.8815 35.4671 42.0315 36.2658M18.1704 3.21966C16.5397 1.92178 10.4629 0.104745 5.99023 3.21966M36.5404 12.804C38.637 14.7009 44.1281 14.5012 45.8253 11.4063" stroke="#EE5712" stroke-width="3" stroke-linecap="round" stroke-linejoin="round"/>
<path d="M12.2803 8.41418C18.2338 8.41434 23.0596 13.2409 23.0596 19.1945C23.0594 25.1478 18.2337 29.9736 12.2803 29.9738C6.32675 29.9738 1.50017 25.1479 1.5 19.1945C1.5 13.2409 6.32665 8.41418 12.2803 8.41418Z" stroke="#EE5712" stroke-width="3"/>
<path d="M49.6191 16.5006C51.3332 16.5007 52.4688 17.1355 53.0635 18.1139C53.6848 19.1362 53.9462 20.9071 53.0615 23.6207C51.8319 27.3922 47.7176 30.1735 43.0293 30.1735C38.3942 30.1733 34.1627 26.8838 32.9443 23.2135C32.3131 21.3118 32.4772 20.1613 32.7627 19.5045C33.0501 18.8436 33.5522 18.4707 34.002 18.2906C34.5144 18.0857 34.8489 18.0566 35.1211 18.0778C35.4346 18.1022 35.7626 18.1979 36.3252 18.3942C37.4687 18.7931 39.0417 19.3961 41.7314 19.3961C43.934 19.3961 45.4972 18.4597 46.6875 17.7252C47.9504 16.946 48.6752 16.5006 49.6191 16.5006Z" stroke="#EE5712" stroke-width="3"/>
</g>
<text x="190" y="96" fill="#25170e" font-family="Arial, sans-serif" font-size="30" font-weight="700">Sanfor2004</text>
<text x="1200" y="91" text-anchor="end" fill="#76583f" font-family="Consolas, monospace" font-size="19">[ SOFTWARE DESIGN / C++20 ]</text>
<text x="80" y="231" fill="#c9521f" font-family="Consolas, monospace" font-size="23">PROBLEM → PATTERN → PRACTICE</text>
<text x="76" y="327" fill="#25170e" font-family="Arial, sans-serif" font-size="88" font-weight="800" letter-spacing="-4">Design-Patterns-23</text>
<text x="80" y="391" fill="#76583f" font-family="Arial, sans-serif" font-size="29">Real examples. Simple explanations.</text>
<g fill="#25170e" font-family="Consolas, monospace" font-size="29">
<text x="80" y="510">23 Patterns</text><text x="390" y="510">4 Languages</text><text x="730" y="510">C++20</text></g>
<g stroke="#c9521f" stroke-width="3"><path d="M80 532H284M390 532H594M730 532H826"/></g>
<g fill="none" stroke="#c9521f" stroke-width="2"><path d="M964 456h64v64h-64zM1124 456h64v64h-64zM1028 488h96m-12-8 12 8-12 8"/></g>
</svg>
